<svg width="20" height="20" viewBox="0 0 20 20" fill="none" xmlns="http://www.w3.org/2000/svg">
<rect width="20" height="20" rx="2" fill="#FED666"/>
<path d="M4.80527 11.3036H8.69741V15.1953C8.69741 15.64 9.05818 16 9.50268 16C9.94719 16 10.308 15.64 10.308 15.1953V11.3036H14.1947C14.6392 11.3036 15 10.9437 15 10.4989C15 10.0542 14.6392 9.69421 14.1947 9.69421H10.308V5.80472C10.308 5.35998 9.94719 5 9.50268 5C9.05818 5 8.69741 5.35998 8.69741 5.80472V9.69421H4.80527C4.36076 9.69421 4 10.0542 4 10.4989C4 10.9437 4.36076 11.3036 4.80527 11.3036Z" fill="white"/>
</svg>
