<svg width="31" height="31" viewBox="0 0 31 31" fill="none" xmlns="http://www.w3.org/2000/svg">
<path d="M21.9812 5.7375H23.9937C24.1081 5.7375 24.2177 5.69206 24.2986 5.61119C24.3795 5.53031 24.4249 5.42062 24.4249 5.30625C24.4249 5.19187 24.3795 5.08218 24.2986 5.00131C24.2177 4.92043 24.1081 4.875 23.9937 4.875H21.1187C21.0043 4.875 20.8946 4.92043 20.8137 5.00131C20.7329 5.08218 20.6874 5.19187 20.6874 5.30625V8.18125C20.6874 8.29562 20.7329 8.40531 20.8137 8.48619C20.8946 8.56706 21.0043 8.6125 21.1187 8.6125C21.2331 8.6125 21.3428 8.56706 21.4236 8.48619C21.5045 8.40531 21.5499 8.29562 21.5499 8.18125V6.54537C23.2279 8.47274 24.1475 10.9446 24.1374 13.5C24.1374 15.6039 23.5135 17.6605 22.3447 19.4099C21.1758 21.1592 19.5145 22.5226 17.5707 23.3278C15.627 24.1329 13.4882 24.3435 11.4247 23.9331C9.36123 23.5226 7.46582 22.5095 5.97814 21.0218C4.49047 19.5342 3.47735 17.6387 3.0669 15.5753C2.65645 13.5118 2.86711 11.373 3.67223 9.4292C4.47736 7.48545 5.84079 5.8241 7.59011 4.65524C9.33943 3.48638 11.3961 2.8625 13.5 2.8625C13.6143 2.8625 13.724 2.81706 13.8049 2.73619C13.8858 2.65531 13.9312 2.54562 13.9312 2.43125C13.9312 2.31688 13.8858 2.20719 13.8049 2.12631C13.724 2.04544 13.6143 2 13.5 2C11.2255 2 9.00209 2.67446 7.11093 3.9381C5.21977 5.20173 3.74579 6.99779 2.87539 9.09914C2.00498 11.2005 1.77725 13.5128 2.22097 15.7435C2.6647 17.9743 3.75997 20.0234 5.36827 21.6317C6.97656 23.24 9.02566 24.3353 11.2564 24.779C13.4872 25.2228 15.7995 24.995 17.9008 24.1246C20.0022 23.2542 21.7982 21.7802 23.0618 19.8891C24.3255 17.9979 24.9999 15.7745 24.9999 13.5C25.0105 10.624 23.932 7.85069 21.9812 5.7375V5.7375Z" fill="#90A0B7" stroke="#90A0B7" stroke-width="0.2"/>
<path d="M6 13.5C6 14.9834 6.43987 16.4334 7.26398 17.6668C8.08809 18.9001 9.25943 19.8614 10.6299 20.4291C12.0003 20.9968 13.5083 21.1453 14.9632 20.8559C16.418 20.5665 17.7544 19.8522 18.8033 18.8033C19.8522 17.7544 20.5665 16.418 20.8559 14.9632C21.1453 13.5083 20.9968 12.0003 20.4291 10.6299C19.8614 9.25943 18.9001 8.08809 17.6668 7.26398C16.4334 6.43987 14.9834 6 13.5 6C11.5115 6.00217 9.60514 6.79304 8.19909 8.19909C6.79304 9.60514 6.00217 11.5115 6 13.5V13.5ZM20.1818 13.5C20.1818 14.8215 19.7899 16.1134 19.0557 17.2122C18.3215 18.311 17.278 19.1675 16.057 19.6732C14.8361 20.1789 13.4926 20.3112 12.1964 20.0534C10.9003 19.7956 9.70971 19.1592 8.77524 18.2248C7.84077 17.2903 7.20439 16.0997 6.94657 14.8036C6.68875 13.5074 6.82107 12.1639 7.3268 10.943C7.83254 9.72204 8.68896 8.67848 9.78778 7.94427C10.8866 7.21006 12.1785 6.81818 13.5 6.81818C15.2715 6.82035 16.9698 7.52502 18.2224 8.77763C19.475 10.0302 20.1797 11.7285 20.1818 13.5V13.5Z" fill="#90A0B7" stroke="#90A0B7" stroke-width="0.2"/>
<path d="M13 8.52503V14.4754C13.0001 14.5792 13.0332 14.6806 13.0952 14.7669C13.1571 14.8531 13.2452 14.9204 13.3481 14.9601C13.4511 14.9998 13.5644 15.0102 13.6737 14.9899C13.783 14.9697 13.8834 14.9198 13.9623 14.8465L18.8487 10.2962C18.9483 10.1966 19.0025 10.065 18.9999 9.92896C18.9973 9.79294 18.9382 9.66316 18.8349 9.56697C18.7316 9.47077 18.5922 9.41567 18.4461 9.41327C18.3001 9.41087 18.1587 9.46136 18.0518 9.5541L14.1276 13.2083V8.52503C14.1276 8.38579 14.0682 8.25224 13.9625 8.15378C13.8568 8.05532 13.7134 8 13.5638 8C13.4143 8 13.2709 8.05532 13.1651 8.15378C13.0594 8.25224 13 8.38579 13 8.52503Z" fill="#90A0B7" stroke="#90A0B7" stroke-width="0.2"/>
</svg>
