<svg width="25" height="25" viewBox="0 0 25 25" fill="none" xmlns="http://www.w3.org/2000/svg">
<g clip-path="url(#clip0)">
<path d="M12.802 11.5056C7.94863 11.5056 4 15.6021 4 20.637C4 20.8373 4.16237 20.9999 4.36297 20.9999H21.2411C21.4414 20.9999 21.6041 20.8373 21.6041 20.637C21.6041 15.6021 17.6557 11.5056 12.802 11.5056ZM4.73344 20.274C4.91662 15.8071 8.46574 12.2316 12.8023 12.2316C17.1386 12.2316 20.6877 15.8071 20.8711 20.274H4.73344Z" fill="white" stroke="white" stroke-width="0.5"/>
<path d="M12.6497 10.5082C15.449 10.5082 17.7265 8.15134 17.7265 5.25411C17.7265 2.35689 15.4492 0 12.6497 0C9.85028 0 7.57324 2.35689 7.57324 5.25411C7.57324 8.15134 9.85052 10.5082 12.6497 10.5082ZM12.6497 0.72594C15.0487 0.72594 17.0005 2.75736 17.0005 5.25411C17.0005 7.75087 15.0487 9.78229 12.6497 9.78229C10.2508 9.78229 8.29918 7.75087 8.29918 5.25411C8.29918 2.75736 10.2508 0.72594 12.6497 0.72594Z" fill="white" stroke="white" stroke-width="0.5"/>
</g>
<defs>
<clipPath id="clip0">
<rect width="25" height="25" fill="white"/>
</clipPath>
</defs>
</svg>
