<svg width="31" height="31" viewBox="0 0 31 31" fill="none" xmlns="http://www.w3.org/2000/svg">
<g clip-path="url(#clip0_268:8553)">
<path d="M20.7501 20.6667V20.8738L20.8965 21.0202L23.3334 23.4571V24.0417H3.66675V23.4571L6.10363 21.0202L6.25008 20.8738V20.6667V14.2084C6.25008 10.4044 8.24768 7.34427 11.6779 6.53155L12.0626 6.4404V6.04502V5.16669C12.0626 4.37075 12.7041 3.72919 13.5001 3.72919C14.296 3.72919 14.9376 4.37075 14.9376 5.16669V6.04502V6.44008L15.3219 6.53146C18.7399 7.34412 20.7501 10.4178 20.7501 14.2084V20.6667ZM15.5222 26.3334C15.2964 27.2392 14.4726 27.9167 13.5001 27.9167C12.5178 27.9167 11.7005 27.2401 11.4772 26.3334H15.5222Z" fill="white" stroke="#90A0B7"/>
<circle cx="19.9584" cy="7.74998" r="5.66667" fill="#F7685B" stroke="white"/>
</g>
<defs>
<clipPath id="clip0_268:8553">
<rect width="31" height="31" fill="white"/>
</clipPath>
</defs>
</svg>
