<svg width="43" height="43" viewBox="0 0 43 43" fill="none" xmlns="http://www.w3.org/2000/svg">
<path d="M33.8855 15.6559H31.5264V15.4414C31.5264 9.88335 27.0046 5.3616 21.4466 5.3616C15.8885 5.3616 11.3668 9.88335 11.3668 15.4414V15.6559H9.00765C8.6525 15.6559 8.36426 15.9441 8.36426 16.2993V36.8878C8.36426 37.2429 8.6525 37.5312 9.00765 37.5312H33.8855C34.2406 37.5312 34.5288 37.2429 34.5288 36.8878V16.2993C34.5288 15.9441 34.2406 15.6559 33.8855 15.6559ZM12.6535 15.4414C12.6535 10.5928 16.598 6.64838 21.4466 6.64838C26.2952 6.64838 30.2396 10.5928 30.2396 15.4414V15.6559H12.6535V15.4414ZM33.2421 36.2444H9.65104V16.9426H33.2421V36.2444Z" fill="#B7C1D0"/>
</svg>
