<svg width="28" height="28" viewBox="0 0 28 28" fill="none" xmlns="http://www.w3.org/2000/svg">
<path d="M19.0086 17.2075H18.06L17.7238 16.8834C18.9005 15.5146 19.6089 13.7376 19.6089 11.8045C19.6089 7.494 16.1149 4 11.8045 4C7.494 4 4 7.494 4 11.8045C4 16.1149 7.494 19.6089 11.8045 19.6089C13.7376 19.6089 15.5146 18.9005 16.8834 17.7238L17.2075 18.06V19.0086L23.211 25L25 23.211L19.0086 17.2075V17.2075ZM11.8045 17.2075C8.81475 17.2075 6.40137 14.7942 6.40137 11.8045C6.40137 8.81475 8.81475 6.40137 11.8045 6.40137C14.7942 6.40137 17.2075 8.81475 17.2075 11.8045C17.2075 14.7942 14.7942 17.2075 11.8045 17.2075Z" fill="white"/>
</svg>
