<svg width="43" height="43" viewBox="0 0 43 43" fill="none" xmlns="http://www.w3.org/2000/svg">
<path d="M22.1849 23.2514C13.5907 23.2514 6.59863 30.5053 6.59863 39.4208C6.59863 39.7756 6.88615 40.0636 7.24136 40.0636H37.1284C37.4831 40.0636 37.7711 39.7756 37.7711 39.4208C37.7711 30.5053 30.7795 23.2514 22.1849 23.2514ZM7.89738 38.7781C8.22174 30.8682 14.5064 24.5369 22.1853 24.5369C29.8638 24.5369 36.1484 30.8682 36.4732 38.7781H7.89738Z" fill="#B7C1D0"/>
<path d="M21.4155 21.6069C26.3723 21.6069 30.4052 17.4334 30.4052 12.3032C30.4052 7.17288 26.3727 2.99941 21.4155 2.99941C16.4583 2.99941 12.4263 7.17288 12.4263 12.3032C12.4263 17.4334 16.4588 21.6069 21.4155 21.6069ZM21.4155 4.28487C25.6635 4.28487 29.1197 7.88203 29.1197 12.3032C29.1197 16.7243 25.6635 20.3214 21.4155 20.3214C17.1675 20.3214 13.7117 16.7243 13.7117 12.3032C13.7117 7.88203 17.1675 4.28487 21.4155 4.28487Z" fill="#B7C1D0"/>
</svg>
