<svg width="28" height="28" viewBox="0 0 28 28" fill="none" xmlns="http://www.w3.org/2000/svg">
<path d="M4.46413 15.4612H11.5408V22.5369C11.5408 23.3455 12.1967 24 13.0049 24C13.8131 24 14.469 23.3455 14.469 22.5369V15.4612H21.5359C22.3441 15.4612 23 14.8067 23 13.9981C23 13.1894 22.3441 12.5349 21.5359 12.5349H14.469V5.46313C14.469 4.65451 13.8131 4 13.0049 4C12.1967 4 11.5408 4.65451 11.5408 5.46313V12.5349H4.46413C3.65593 12.5349 3 13.1894 3 13.9981C3 14.8067 3.65593 15.4612 4.46413 15.4612Z" fill="white"/>
</svg>
