<svg width="25" height="25" viewBox="0 0 25 25" fill="none" xmlns="http://www.w3.org/2000/svg">
<path d="M23.0052 10.0666L12.5882 1.16418C12.4474 1.04385 12.2394 1.0446 12.1002 1.16617L1.90491 10.0367C1.74921 10.1722 1.73277 10.4081 1.86829 10.5638C2.00381 10.7195 2.23998 10.7357 2.39543 10.6005L4.59218 8.68919V20.6152C4.59218 20.8215 4.75934 20.9889 4.96586 20.9889H19.5656C19.7718 20.9889 19.9393 20.8215 19.9393 20.6152V8.42961L22.5194 10.6346C22.5899 10.6949 22.6761 10.7243 22.762 10.7243C22.8677 10.7243 22.9725 10.6799 23.0465 10.5935C23.1806 10.4365 23.1621 10.2006 23.0052 10.0666ZM19.1919 20.2418H5.33954V8.03898L12.3476 1.94145L19.1919 7.79086V20.2418Z" fill="white" stroke="white" stroke-width="0.5"/>
<path d="M15.4023 12.4807H12.7925V9.84297H15.4023V12.4807ZM8.23313 9.36929V16.539C8.23313 16.8005 8.44502 17.0127 8.70681 17.0127H15.876C16.1375 17.0127 16.3497 16.8005 16.3497 16.539V9.36929C16.3497 9.1075 16.1375 8.89561 15.876 8.89561H8.70681C8.44535 8.89561 8.23313 9.1075 8.23313 9.36929ZM12.7925 16.0654V13.4281H15.4023V16.0654H12.7925ZM9.18049 9.84297H11.8451V12.7977C11.8279 12.8463 11.818 12.899 11.818 12.9544C11.818 13.0099 11.8279 13.0625 11.8451 13.1111V16.0651H9.18049V9.84297Z" fill="white" stroke="white" stroke-width="0.2"/>
</svg>
