<svg width="17" height="16" viewBox="0 0 17 16" fill="none" xmlns="http://www.w3.org/2000/svg">
<path d="M13.8731 2.12903H12.6418V1.33871C12.6418 1.15806 12.4851 1 12.306 1C12.1269 1 11.9701 1.15806 11.9701 1.33871V2.12903H5.02985V1.33871C5.02985 1.15806 4.87313 1 4.69403 1C4.51493 1 4.35821 1.15806 4.35821 1.33871V2.12903H3.12687C1.96269 2.12903 1 3.1 1 4.27419V12.8548C1 14.029 1.96269 15 3.12687 15H13.8731C15.0373 15 16 14.029 16 12.8548V4.27419C16 3.07742 15.0373 2.12903 13.8731 2.12903ZM3.12687 2.80645H4.35821V4.5C4.35821 4.68065 4.51493 4.83871 4.69403 4.83871C4.87313 4.83871 5.02985 4.68065 5.02985 4.5V2.80645H11.9701V4.5C11.9701 4.68065 12.1269 4.83871 12.306 4.83871C12.4851 4.83871 12.6418 4.68065 12.6418 4.5V2.80645H13.8731C14.6791 2.80645 15.3284 3.46129 15.3284 4.27419V6.62258H1.67164V4.27419C1.67164 3.46129 2.3209 2.80645 3.12687 2.80645ZM13.8731 14.3226H3.12687C2.3209 14.3226 1.67164 13.6677 1.67164 12.8548V7.3H15.3284V12.8548C15.3284 13.6677 14.6791 14.3226 13.8731 14.3226Z" fill="#888888" stroke="#888888" stroke-width="0.5"/>
</svg>
