<svg width="759" height="804" viewBox="0 0 759 804" fill="none" xmlns="http://www.w3.org/2000/svg">
<path d="M4.29878e-05 12.7567C4.29878e-05 12.7567 301.475 -62.2325 375.857 165.467C450.239 393.167 755.812 568.496 759 802.876L17.3052 804.09C7.74179 804.09 4.29878e-05 793.919 4.29878e-05 781.32V12.7567Z" fill="#76BFFD"/>
<path opacity="0.4" d="M111.124 557.596C111.882 556.837 112.793 556.079 113.855 555.472L319.108 441.556C326.542 437.461 339.436 438.371 348.083 443.68L630.857 615.691C631.767 616.298 632.678 616.904 633.436 617.511L634.802 618.573C636.925 620.242 638.139 622.669 637.987 625.247V626.461C637.684 628.736 636.015 630.86 633.133 632.528L427.879 746.444C420.446 750.539 407.551 749.629 398.904 744.32L116.13 572.309C111.579 569.579 109.303 566.242 109 563.056L109.607 559.871L111.124 557.596Z" fill="#A8B2E5"/>
<path opacity="0.31" d="M262 436C227.758 436 200 425.703 200 413C200 400.297 227.758 390 262 390C296.242 390 324 400.297 324 413C324 425.703 296.242 436 262 436Z" fill="#476DCF"/>
<path d="M245.916 282.202C245.916 258.976 271.722 240.001 303.448 240.001C335.174 240.001 360.98 258.824 360.98 282.202V386.488H360.829C360.98 387.703 360.98 388.917 360.98 390.131C360.98 413.357 335.174 432.332 303.448 432.332C271.722 432.332 245.916 413.509 245.916 390.131C245.916 388.31 246.068 386.64 246.371 384.97C246.371 384.818 245.916 284.023 245.916 282.202Z" fill="url(#paint0_linear)"/>
<path d="M303.448 423.679C278.8 423.679 258.819 414.232 258.819 402.579C258.819 390.926 278.8 381.479 303.448 381.479C328.096 381.479 348.078 390.926 348.078 402.579C348.078 414.232 328.096 423.679 303.448 423.679Z" fill="#2BAFFF"/>
<path opacity="0.27" d="M330.469 392.257L338.969 390.131C345.193 388.613 350.354 381.782 350.354 374.951V294.497C350.354 287.666 345.193 283.416 338.969 284.934L330.469 287.059C324.245 288.577 319.084 295.408 319.084 302.239V382.693C319.084 389.372 324.245 393.775 330.469 392.257Z" fill="#FCFEFF"/>
<path d="M302.234 261.253C284.628 261.253 270.356 253.981 270.356 245.011C270.356 236.04 284.628 228.768 302.234 228.768C319.84 228.768 334.112 236.04 334.112 245.011C334.112 253.981 319.84 261.253 302.234 261.253Z" fill="#109CF1"/>
<path d="M270.356 245.011C270.356 253.967 284.625 261.253 302.234 261.253L308.609 260.95C290.09 257.003 280.375 248.047 281.134 232.867C274.454 235.903 270.356 240.153 270.356 245.011Z" fill="#109CF1"/>
<path d="M302.234 257.306C286.305 257.306 273.392 250.714 273.392 242.582C273.392 234.45 286.305 227.857 302.234 227.857C318.163 227.857 331.076 234.45 331.076 242.582C331.076 250.714 318.163 257.306 302.234 257.306Z" fill="#2BAFFF"/>
<path d="M273.392 223.91H330.924V242.582H273.392V223.91Z" fill="#2BAFFF"/>
<path d="M302.234 257.306C286.295 257.306 273.392 250.779 273.392 242.582V223.91C279.616 239.849 288.724 251.842 302.234 257.306Z" fill="#109CF1"/>
<path d="M302.234 238.635C286.305 238.635 273.392 232.043 273.392 223.91C273.392 215.778 286.305 209.186 302.234 209.186C318.163 209.186 331.076 215.778 331.076 223.91C331.076 232.043 318.163 238.635 302.234 238.635Z" fill="#109CF1"/>
<path d="M301.778 231.804C292.053 231.804 284.17 227.794 284.17 222.848C284.17 217.902 292.053 213.892 301.778 213.892C311.504 213.892 319.387 217.902 319.387 222.848C319.387 227.794 311.504 231.804 301.778 231.804Z" fill="#B8D1FF"/>
<path d="M327.584 246.377C328.192 246.377 328.799 245.77 328.799 245.162V234.536C328.799 233.929 328.192 233.322 327.584 233.322C326.977 233.322 326.37 233.929 326.37 234.536V245.162C326.37 245.77 326.977 246.377 327.584 246.377Z" fill="#B8D1FF"/>
<path d="M321.664 250.172C322.272 250.172 322.879 249.565 322.879 248.957V238.331C322.879 237.724 322.272 237.117 321.664 237.117C321.057 237.117 320.45 237.724 320.45 238.331V248.957C320.45 249.565 321.057 250.172 321.664 250.172Z" fill="#B8D1FF"/>
<path d="M315.44 252.449C316.048 252.449 316.655 251.842 316.655 251.234V240.608C316.655 240.001 316.048 239.394 315.44 239.394C314.833 239.394 314.226 240.001 314.226 240.608V251.234C314.226 251.842 314.833 252.449 315.44 252.449Z" fill="#B8D1FF"/>
<path d="M308.457 254.27C309.065 254.27 309.672 253.663 309.672 253.056V242.43C309.672 241.823 309.065 241.216 308.457 241.216C307.85 241.216 307.243 241.823 307.243 242.43V253.056C307.243 253.663 307.85 254.27 308.457 254.27Z" fill="#B8D1FF"/>
<path d="M276.276 246.377C275.669 246.377 275.061 245.77 275.061 245.162V234.536C275.061 233.929 275.669 233.322 276.276 233.322C276.883 233.322 277.49 233.929 277.49 234.536V245.162C277.49 245.77 277.035 246.377 276.276 246.377Z" fill="#B8D1FF"/>
<path d="M282.196 250.172C281.589 250.172 280.982 249.565 280.982 248.957V238.331C280.982 237.724 281.589 237.117 282.196 237.117C282.803 237.117 283.411 237.724 283.411 238.331V248.957C283.562 249.565 282.955 250.172 282.196 250.172Z" fill="#B8D1FF"/>
<path d="M288.42 252.449C287.813 252.449 287.205 251.842 287.205 251.234V240.608C287.205 240.001 287.813 239.394 288.42 239.394C289.027 239.394 289.634 240.001 289.634 240.608V251.234C289.634 251.842 289.027 252.449 288.42 252.449Z" fill="#B8D1FF"/>
<path d="M295.403 254.27C294.796 254.27 294.188 253.663 294.188 253.056V242.43C294.188 241.823 294.796 241.216 295.403 241.216C296.01 241.216 296.617 241.823 296.617 242.43V253.056C296.617 253.663 296.01 254.27 295.403 254.27Z" fill="#B8D1FF"/>
<path d="M301.778 255.029C302.385 255.029 302.993 254.422 302.993 253.815V243.189C302.993 242.582 302.385 241.975 301.778 241.975C301.171 241.975 300.564 242.582 300.564 243.189V253.815C300.564 254.574 301.019 255.029 301.778 255.029Z" fill="#B8D1FF"/>
<path opacity="0.31" d="M115.823 520.528L235.594 450.396C237.263 449.333 236.656 447.208 233.924 445.69L173.659 409.562C171.078 408.044 167.435 407.588 165.614 408.499L45.8435 478.631C44.1737 479.694 44.7809 481.819 47.5133 483.337L107.93 519.465C110.51 521.135 114.154 521.59 115.823 520.528Z" fill="#2E4787"/>
<path d="M121.592 437.797L241.817 368.424C243.639 367.361 243.335 365.692 241.362 364.477L195.215 337.76C193.241 336.546 190.053 336.394 188.384 337.457L68.158 406.829C66.3364 407.892 66.6401 409.562 68.6135 410.776L114.761 437.493C116.734 438.707 119.77 438.859 121.592 437.797Z" fill="#F0F5FF"/>
<path d="M68.9172 490.927L117.493 519.01C119.467 520.224 121.136 518.706 121.136 515.67L121.744 444.02C121.744 440.984 120.226 437.645 118.252 436.43L69.6762 408.347C67.7028 407.133 66.033 408.651 66.033 411.687L65.4258 483.337C65.274 486.373 66.792 489.712 68.9172 490.927Z" fill="#99B8FF"/>
<path d="M118.556 438.556C90.9284 432.939 65.8813 411.687 65.8813 411.687C65.8813 408.651 67.5512 407.133 69.5246 408.347L118.101 436.43C120.074 437.645 121.744 440.984 121.592 444.02V451.003C121.288 448.119 120.378 439.618 118.556 438.556Z" fill="#109CF1"/>
<path d="M118.252 519.313C119.011 519.01 119.466 518.251 119.466 517.492V439.467C119.466 438.404 118.252 437.645 116.734 437.645C115.216 437.645 114.001 436.582 114.001 437.645V517.036C114.001 517.036 117.796 519.465 118.252 519.313Z" fill="#109CF1"/>
<path d="M119.922 519.313L240.148 449.789C241.666 448.878 243.032 446.449 243.032 444.324V367.513C243.032 365.388 241.817 364.477 240.148 365.388L119.922 434.912C118.404 435.823 117.038 438.252 117.038 440.377V517.188C117.19 519.313 118.404 520.224 119.922 519.313Z" fill="#CFDEFF"/>
<path d="M233.165 409.41C233.165 410.928 232.254 412.446 230.888 413.205L161.667 453.887C158.631 455.709 154.988 453.584 154.988 450.244V446.753C154.988 445.235 155.898 443.717 157.265 442.958L226.334 402.275C229.37 400.454 233.013 402.579 233.013 405.919V409.41H233.165Z" fill="#4CB5F5"/>
<path d="M232.102 427.171L186.258 454.191C184.892 454.95 183.222 454.039 183.222 452.521C183.222 451.762 183.678 451.155 184.285 450.7L230.129 423.679C231.495 422.92 233.165 423.831 233.165 425.349C233.165 426.108 232.709 426.715 232.102 427.171Z" fill="#F0F5FF"/>
<path d="M192.027 458.138C192.027 457.834 192.179 457.531 192.483 457.227L231.495 434.305C232.102 433.85 233.013 434.305 233.013 435.064C233.013 435.368 232.861 435.672 232.558 435.975L193.545 458.897C192.938 459.352 192.027 458.897 192.027 458.138Z" fill="#F0F5FF"/>
<path d="M217.378 398.025C216.771 398.48 215.86 398.025 215.86 397.266C215.86 396.962 216.012 396.659 216.315 396.355L231.495 387.399C232.102 386.944 233.013 387.399 233.013 388.158C233.013 388.462 232.861 388.765 232.558 389.069L217.378 398.025Z" fill="#F0F5FF"/>
<path d="M164 713C159.606 713 74 713 74 713" stroke="white" stroke-width="0.9459" stroke-miterlimit="10" stroke-linecap="round" stroke-linejoin="round"/>
<path d="M133 201C128.606 201 43 201 43 201" stroke="white" stroke-width="0.9459" stroke-miterlimit="10" stroke-linecap="round" stroke-linejoin="round"/>
<path opacity="0.28" d="M193 209.503C193 212.623 195.527 215 198.5 215C201.622 215 204 212.474 204 209.503C204 206.383 201.473 204.006 198.5 204.006C195.527 203.858 193 206.383 193 209.503Z" fill="white"/>
<path d="M75.8222 373.894L114.178 351.493C117.968 349.36 121 344.331 121 340.521V301.054C121 297.244 117.968 295.873 114.178 298.006L75.8222 320.407C72.0321 322.54 69 327.569 69 331.378V370.846C69 374.808 72.1837 376.179 75.8222 373.894Z" fill="white" stroke="#35519C" stroke-width="0.5746" stroke-miterlimit="10"/>
<path d="M87.1635 330.736C91.0861 324.743 97.1209 321.517 100.591 323.668C104.061 325.819 103.759 332.272 99.8365 338.264C95.9139 344.257 89.8791 347.483 86.4092 345.332C82.9392 343.181 83.2409 336.728 87.1635 330.736ZM88.2196 342.413C90.7844 343.949 95.1596 341.645 98.026 337.189C100.893 332.733 101.194 327.97 98.6295 326.587C96.0648 325.051 91.6896 327.355 88.8231 331.811C85.9566 336.113 85.6548 340.876 88.2196 342.413Z" fill="#109CF1"/>
<path d="M109.488 343.748C110.141 342.831 110.141 341.761 109.651 341.456L102.797 338.093C102.144 337.787 101.165 338.246 100.512 339.316C99.8594 340.233 99.8594 341.303 100.349 341.608L107.203 344.971C107.693 345.124 108.835 344.665 109.488 343.748Z" fill="#109CF1"/>
<path d="M141.477 335.939L179.883 313.624C183.678 311.499 186.714 306.49 186.714 302.695V263.378C186.714 259.583 183.678 258.217 179.883 260.342L141.477 282.657C137.682 284.782 134.646 289.792 134.646 293.587V332.903C134.646 336.85 137.682 338.216 141.477 335.939Z" fill="white" stroke="#35519C" stroke-width="0.5746" stroke-miterlimit="10"/>
<path d="M154.988 299.051L161.211 284.782L167.283 292.979C168.194 293.738 168.801 294.801 168.953 296.319V296.471C168.953 296.623 168.953 296.926 168.953 297.23C168.953 301.936 165.158 307.856 160.604 310.588C156.05 313.321 152.255 311.651 152.255 306.945C152.255 304.365 153.318 301.632 154.988 299.051Z" fill="#109CF1"/>
<path d="M132.825 552.709C133.584 551.95 134.495 551.191 135.557 550.584L340.791 436.582C348.229 432.484 361.132 433.394 369.785 438.707L652.74 610.849C653.651 611.456 654.561 612.063 655.32 612.67L656.687 613.733C658.812 615.403 660.026 617.831 659.874 620.412V621.626C659.571 623.903 657.901 626.029 655.017 627.698L449.783 741.7C442.345 745.799 429.442 744.888 420.789 739.575L137.834 567.434C133.28 564.702 131.003 561.362 130.7 558.174L131.307 554.986L132.825 552.709Z" fill="#0E2E82"/>
<path d="M437.032 718.019L634.372 608.42L350.81 440.225L153.318 549.825L437.032 718.019Z" fill="white" stroke="#35519C" stroke-width="0.5911" stroke-miterlimit="10"/>
<path d="M202.198 508.384L208.877 504.589C200.983 499.883 200.983 492.445 208.877 488.042L245.461 467.701C253.354 463.299 266.257 463.603 274.303 468.308L278.857 465.728C287.206 461.174 300.564 461.326 308.913 466.335C317.262 471.193 317.262 478.934 308.913 483.488L232.254 525.992C223.905 530.546 210.547 530.395 202.198 525.385C193.849 520.679 193.849 512.938 202.198 508.384Z" fill="#0E2E82"/>
<path d="M202.198 501.856L208.877 498.061C200.983 493.355 200.983 485.917 208.877 481.515L245.461 461.174C253.354 456.772 266.257 457.075 274.303 461.781L278.857 459.2C287.206 454.646 300.564 454.798 308.913 459.808C317.262 464.665 317.262 472.407 308.913 476.961L232.254 519.465C223.905 524.019 210.547 523.867 202.198 518.858C193.849 514.152 193.849 506.41 202.198 501.856Z" fill="#109CF1"/>
<path d="M223.146 500.642L279.16 468.612C281.133 467.549 281.133 464.665 279.312 463.299C278.249 462.692 277.035 462.54 275.972 463.147L219.958 495.177C217.985 496.24 217.985 499.124 219.806 500.49C220.869 501.249 222.083 501.249 223.146 500.642Z" fill="white"/>
<path d="M333.049 523.108L281.589 551.95" stroke="#B8CCFF" stroke-width="3.6594" stroke-miterlimit="10" stroke-linecap="round" stroke-linejoin="round"/>
<path d="M352.024 533.582L264.891 581.551" stroke="#B8CCFF" stroke-width="3.6594" stroke-miterlimit="10" stroke-linecap="round" stroke-linejoin="round"/>
<path d="M381.018 519.617L414.718 500.945L381.17 481.515L347.47 500.186L381.018 519.617Z" fill="#109CF1"/>
<path d="M388.456 493.811L390.885 503.981L367.053 501.401" stroke="white" stroke-width="2.0446" stroke-miterlimit="10" stroke-linecap="round" stroke-linejoin="round"/>
<path d="M400.296 574.265L348.836 602.955" stroke="#B8CCFF" stroke-width="3.6594" stroke-miterlimit="10" stroke-linecap="round" stroke-linejoin="round"/>
<path d="M419.271 584.739L332.138 632.708" stroke="#B8CCFF" stroke-width="3.6594" stroke-miterlimit="10" stroke-linecap="round" stroke-linejoin="round"/>
<path d="M476.652 610.849L425.04 639.691" stroke="#B8CCFF" stroke-width="3.6594" stroke-miterlimit="10" stroke-linecap="round" stroke-linejoin="round"/>
<path d="M494.109 627.395L406.976 675.364" stroke="#B8CCFF" stroke-width="3.6594" stroke-miterlimit="10" stroke-linecap="round" stroke-linejoin="round"/>
<path d="M529.023 607.661L562.723 588.989L529.175 569.559L495.475 588.23L529.023 607.661Z" fill="#109CF1"/>
<path d="M536.461 581.855L538.89 591.874L515.058 589.445" stroke="white" stroke-width="2.0446" stroke-miterlimit="10" stroke-linecap="round" stroke-linejoin="round"/>
<path d="M455.248 563.487L488.948 544.967L455.4 525.385L421.7 544.057L455.248 563.487Z" fill="#109CF1"/>
<path d="M462.686 537.681L465.115 547.852L441.283 545.271" stroke="white" stroke-width="2.0446" stroke-miterlimit="10" stroke-linecap="round" stroke-linejoin="round"/>
<path opacity="0.31" d="M512.325 497.909C512.325 502.008 518.245 505.196 525.684 505.196C533.122 505.196 539.042 501.856 539.042 497.909C539.042 493.963 533.122 490.623 525.684 490.623C518.245 490.623 512.325 493.963 512.325 497.909Z" fill="#2E4787"/>
<path opacity="0.31" d="M486.063 472.559L486.367 472.255L488.948 468.916L489.251 468.46C490.617 467.094 492.743 466.487 495.475 466.79C501.395 467.398 507.923 472.559 509.896 478.327C510.807 480.908 510.655 483.185 509.592 484.703L506.405 488.801C505.038 490.168 502.913 490.927 500.029 490.623C494.109 490.016 487.581 484.855 485.608 479.086C484.849 476.506 485.001 474.229 486.063 472.559Z" fill="#2E4787"/>
<path opacity="0.31" d="M394.528 434.457L464.053 472.407C464.812 471.952 465.267 471.648 465.267 471.648L492.591 466.79L493.198 479.238C493.198 479.238 481.965 487.587 469.366 484.096C463.597 485.158 458.588 483.792 454.793 480.149L392.251 445.235C391.037 444.779 389.974 444.324 389.063 443.717C383.143 439.922 388.456 431.117 394.528 434.457Z" fill="#2E4787"/>
<path d="M389.064 419.884C388.001 400.454 400.449 376.166 416.691 365.692C424.433 360.682 431.719 359.62 437.336 362.048C437.943 362.352 438.55 362.656 439.006 362.959L508.227 398.025L463.749 474.988L400.904 439.922C394.225 437.645 389.671 430.662 389.064 419.884Z" fill="url(#paint1_linear)"/>
<path d="M467.146 477.338C454.453 470.857 453.248 447.808 464.456 425.857C475.663 403.905 495.038 391.364 507.732 397.844C520.425 404.325 521.629 427.373 510.421 449.325C499.214 471.276 479.839 483.818 467.146 477.338Z" fill="#ED9845"/>
<path d="M476.729 473.641C466.258 468.337 465.203 449.365 474.371 431.265C483.539 413.166 499.46 402.793 509.931 408.097C520.401 413.401 521.457 432.374 512.289 450.473C503.12 468.572 487.2 478.945 476.729 473.641Z" fill="#FED666"/>
<path opacity="0.37" d="M402.652 433.11C392.181 427.806 391.125 408.834 400.294 390.735C409.462 372.635 425.383 362.263 435.854 367.567C446.324 372.871 447.38 391.843 438.212 409.942C429.043 428.042 413.123 438.414 402.652 433.11Z" fill="#FED666"/>
<path d="M488.189 409.258C496.082 404.097 503.369 403.793 508.53 407.285C505.038 407.588 501.092 408.955 496.993 411.535C482.572 420.795 471.794 442.199 472.553 459.352C473.009 466.942 475.589 472.559 479.84 475.443C470.883 476.05 464.356 469.371 463.749 457.075C462.99 439.922 473.919 418.518 488.189 409.258Z" fill="#FFA664"/>
<path d="M491.528 471.193C505.949 461.933 516.727 440.529 515.968 423.376C515.513 415.786 512.932 410.169 508.682 407.285C517.638 406.678 524.165 413.357 524.773 425.653C525.683 442.806 514.754 464.058 500.333 473.47C492.439 478.631 485.153 478.934 479.992 475.443C483.483 475.139 487.43 473.773 491.528 471.193Z" fill="#D37B33"/>
<path opacity="0.18" d="M439.158 380.416L475.741 399.847C478.474 401.365 481.965 400.302 483.331 397.57C484.849 394.837 483.787 391.346 481.054 389.98L444.471 370.549C441.738 369.031 438.247 370.094 436.881 372.826C435.363 375.559 436.425 379.05 439.158 380.416Z" fill="#FFE0C9"/>
<path d="M479.536 473.773C485.001 476.354 493.198 475.291 497.904 471.496C502.61 467.701 501.851 462.54 496.538 460.111C491.073 457.531 482.876 458.593 478.17 462.388C473.464 466.031 474.071 471.193 479.536 473.773Z" fill="#CFDEFF"/>
<path d="M474.471 463.761L500.377 460.497L501.023 465.618L475.117 468.882L474.471 463.761Z" fill="#CFDEFF"/>
<path d="M478.929 469.523C484.394 472.103 492.591 471.041 497.297 467.246C502.003 463.451 501.244 458.29 495.931 455.861C490.466 453.28 482.269 454.343 477.563 458.138C472.857 461.781 473.464 466.942 478.929 469.523Z" fill="white"/>
<path d="M477.824 463.317C477.415 460.073 481.332 456.908 486.573 456.248C491.813 455.588 496.393 457.683 496.801 460.927C497.21 464.171 493.293 467.336 488.053 467.996C482.812 468.656 478.233 466.562 477.824 463.317Z" fill="#CFDEFF"/>
<path d="M492.287 478.934C494.261 484.551 500.788 489.712 506.708 490.471C512.629 491.078 515.968 487.132 513.843 481.515C511.87 475.898 505.342 470.737 499.422 469.978C493.502 469.219 490.314 473.318 492.287 478.934Z" fill="#CFDEFF"/>
<path d="M495.865 468.202L516.306 484.447L513.095 488.488L492.654 472.242L495.865 468.202Z" fill="#CFDEFF"/>
<path d="M494.868 475.595C496.841 481.211 503.369 486.373 509.289 487.132C515.209 487.739 518.549 483.792 516.424 478.175C514.45 472.559 507.923 467.398 502.003 466.639C496.082 465.88 492.895 469.978 494.868 475.595Z" fill="white"/>
<path d="M498.208 475.443C499.726 479.542 504.431 483.337 508.834 483.792C513.236 484.247 515.513 481.363 514.147 477.113C512.629 473.014 507.923 469.219 503.521 468.764C498.967 468.46 496.69 471.344 498.208 475.443Z" fill="#CFDEFF"/>
<path d="M496.993 456.316C502.914 454.95 508.682 449.03 510.048 443.261C511.414 437.341 507.771 433.698 501.851 435.216C495.931 436.582 490.162 442.502 488.796 448.271C487.582 454.039 491.225 457.682 496.993 456.316Z" fill="#CFDEFF"/>
<path d="M486.886 451.615L505.259 433.064L508.926 436.696L490.553 455.247L486.886 451.615Z" fill="#CFDEFF"/>
<path d="M493.957 453.28C499.877 451.914 505.646 445.994 507.012 440.225C508.378 434.305 504.735 430.662 498.815 432.18C492.895 433.546 487.126 439.466 485.76 445.235C484.546 451.155 488.189 454.798 493.957 453.28Z" fill="white"/>
<path d="M494.261 450.092C498.511 449.03 502.762 444.779 503.824 440.529C504.735 436.279 502.155 433.546 497.904 434.609C493.654 435.671 489.403 439.922 488.341 444.172C487.278 448.423 490.011 451.155 494.261 450.092Z" fill="#CFDEFF"/>
<path d="M523.862 502.312C528.871 505.651 537.22 505.803 542.381 502.767C547.543 499.731 547.694 494.57 542.685 491.23C537.676 487.891 529.327 487.739 524.165 490.775C519.004 493.963 518.852 499.124 523.862 502.312Z" fill="#CFDEFF"/>
<path d="M520.269 491.723L546.374 492.287L546.262 497.447L520.158 496.883L520.269 491.723Z" fill="#CFDEFF"/>
<path d="M524.014 498.061C529.023 501.401 537.372 501.553 542.533 498.517C547.694 495.481 547.846 490.319 542.837 486.98C537.827 483.64 529.478 483.488 524.317 486.524C519.004 489.712 519.004 494.873 524.014 498.061Z" fill="white"/>
<path d="M526.443 496.088C530.086 498.517 536.158 498.668 539.953 496.391C543.748 494.114 543.748 490.319 540.105 487.891C536.461 485.462 530.389 485.31 526.594 487.587C522.951 489.864 522.799 493.659 526.443 496.088Z" fill="#CFDEFF"/>
<path opacity="0.4" d="M78.025 615.099C64.6111 615.099 53.737 609.254 53.737 602.044C53.737 594.834 64.6111 588.99 78.025 588.99C91.4389 588.99 102.313 594.834 102.313 602.044C102.313 609.254 91.4389 615.099 78.025 615.099Z" fill="#A8B2E5"/>
<path d="M64.2112 588.382C64.2112 578.971 64.0594 549.977 64.0594 549.37C64.0594 545.119 66.1846 541.173 69.8278 538.137C71.0422 537.074 74.8372 536.467 75.2926 531.609C75.2926 531.609 97.759 525.993 97.3036 530.547C97 534.342 103.983 536.163 105.956 538.137C109.599 541.173 111.725 545.119 111.725 549.37V591.874H111.573C111.573 592.329 111.725 592.785 111.725 593.392C111.725 602.955 101.099 610.545 87.892 610.545C87.2848 610.545 86.8294 610.545 86.2222 610.545C73.9264 609.938 64.0594 602.5 64.0594 593.392C64.0594 593.088 64.0594 592.785 64.0594 592.633L64.2112 588.382Z" fill="#EBF5FF"/>
<path d="M68.0061 561.362C68.0061 565.916 74.0781 569.863 82.4271 570.925H92.9013C101.25 569.711 107.322 565.916 107.322 561.362V586.257C107.322 586.713 107.322 587.32 107.322 587.775C107.322 597.49 98.5179 605.384 87.5883 605.384C76.6587 605.384 67.8543 597.49 67.8543 587.775C67.8543 587.016 67.8543 586.257 68.0061 585.65C68.1579 585.65 68.0061 562.121 68.0061 561.362Z" fill="#EB984E"/>
<path d="M68.0061 562.121C68.0061 568.041 76.8105 572.747 87.7401 572.747C98.6697 572.747 107.474 568.041 107.474 562.121C107.474 556.201 98.6697 551.495 87.7401 551.495C76.8105 551.495 68.0061 556.353 68.0061 562.121Z" fill="#FFAC61"/>
<path d="M71.8014 526.144C72.105 527.055 71.8014 527.814 72.2568 528.725C72.4086 529.029 72.5604 529.18 72.864 529.484V529.636V529.484C75.5964 532.672 81.5166 534.797 88.3476 534.797C97.7592 534.797 105.349 532.216 105.349 527.055L105.501 534.342V537.226C105.501 542.387 97.911 546.486 88.4994 546.486C87.285 546.486 86.0706 546.486 84.8562 546.334C77.1144 545.423 71.346 541.78 71.346 537.226V534.342V527.207C71.1942 527.662 71.6496 525.993 71.8014 526.144Z" fill="#FED666"/>
<path d="M71.194 527.359C71.194 532.216 78.784 536.163 88.1956 536.163C97.6072 536.163 105.197 532.216 105.197 527.359C105.197 522.501 97.6072 518.554 88.1956 518.554C78.784 518.403 71.194 522.349 71.194 527.359Z" fill="#109CF1"/>
<path d="M77.5698 527.359C77.5698 530.395 82.2756 532.824 88.1958 532.824C94.116 532.824 98.8218 530.395 98.8218 527.359C98.8218 524.323 94.116 521.894 88.1958 521.894C82.4274 521.742 77.5698 524.323 77.5698 527.359Z" fill="#76BFFD"/>
<path d="M102.617 593.847H102.92C104.135 593.847 105.197 592.785 105.197 591.57V565.612C105.197 564.398 104.135 563.335 102.92 563.335H102.617C101.402 563.335 100.34 564.398 100.34 565.612V591.418C100.34 592.785 101.25 593.847 102.617 593.847Z" fill="#EBF5FF"/>
<path opacity="0.4" d="M119.618 642.575C121.895 636.351 128.878 633.467 135.254 636.199C135.406 636.199 135.406 636.199 135.406 636.351L147.398 641.209C147.853 641.36 148.309 641.512 148.764 641.664C148.916 641.664 148.916 641.664 148.916 641.816L153.318 643.637L281.893 696.16C282.196 696.16 282.652 696.312 282.955 696.464L294.037 709.822L304.511 720.904L286.447 719.386L272.329 718.627C271.874 718.171 271.418 717.716 271.115 717.109L270.811 717.564L150.586 668.533C151.041 668.836 151.496 669.14 152.104 669.443C152.104 669.443 152.255 669.443 152.407 669.595L146.487 667.318C146.335 667.318 146.335 667.318 146.183 667.166C145.728 667.015 145.121 666.711 144.665 666.407L140.567 664.738C140.415 664.738 140.415 664.738 140.263 664.586C139.352 664.131 138.593 663.675 137.834 663.068L127.208 658.666C127.057 658.666 127.057 658.666 126.905 658.514C120.681 655.933 117.341 648.799 119.618 642.575Z" fill="#A8B2E5"/>
<path d="M136.468 632.101C136.62 632.101 136.62 632.101 136.62 632.252L159.693 641.664C166.069 644.245 169.56 651.379 167.283 657.603C165.006 663.827 158.024 666.711 151.648 663.979L128.574 654.567C128.423 654.567 128.423 654.567 128.271 654.415C121.895 651.835 118.404 644.7 120.681 638.476C122.958 632.404 130.092 629.52 136.468 632.101Z" fill="#0E2E82"/>
<path d="M128.423 654.415L272.177 713.314L279.16 701.473L139.201 644.093C118.1 635.744 116.127 648.04 128.423 654.415Z" fill="#0E2E82"/>
<path d="M279.008 701.473C280.071 695.705 284.473 699.5 283.411 691.91L152.104 638.324C142.54 637.11 139.201 639.691 138.442 643.941L279.008 701.473Z" fill="#0E2E82"/>
<path d="M284.321 692.365L304.207 716.046L273.695 714.224C266.712 708.456 277.642 689.026 284.321 692.365Z" fill="#E1EAF4"/>
<path d="M305.877 716.653L295.403 705.572C290.242 706.786 287.661 709.974 287.661 715.135L305.877 716.653Z" fill="#0E2E82"/>
<path opacity="0.4" d="M567.58 698.134L650.159 652.442C659.723 647.129 676.421 648.04 687.35 654.567C698.28 661.095 699.343 670.81 689.627 676.123L686.895 677.641L626.023 711.34L607.048 721.815C597.485 727.128 580.787 726.217 569.857 719.689C558.928 713.162 557.865 703.447 567.58 698.134Z" fill="#A8B2E5"/>
<path d="M618.585 719.841L701.164 674.149C710.727 668.836 709.817 659.121 698.887 652.594C687.957 646.066 671.411 645.004 661.696 650.469L579.117 696.16C569.553 701.473 570.464 711.189 581.394 717.716C592.323 724.092 609.021 725.154 618.585 719.841Z" fill="white"/>
<path d="M572.893 702.991C572.589 707.394 576.84 712.858 582.608 716.35C593.538 722.877 611.906 722.574 622.987 716.35L700.101 673.542C703.745 671.569 706.173 668.988 707.54 666.408C707.236 670.354 704.352 674.149 699.039 677.185L621.924 719.993C610.843 726.217 592.931 725.913 582.001 719.234C574.866 714.832 570.312 708.304 572.893 702.991Z" fill="#A1B8ED"/>
<path d="M637.863 702.081L669.741 684.472L639.988 666.559L608.11 684.168L637.863 702.081Z" fill="#109CF1"/>
<path d="M669.438 656.996C671.26 658.059 674.447 658.21 676.269 657.148C678.242 656.085 678.242 654.264 676.269 653.201C674.447 652.138 671.26 651.987 669.438 653.049C667.616 654.112 667.616 655.933 669.438 656.996Z" fill="#A6BEF5"/>
<path d="M687.806 668.077C689.627 669.14 692.815 669.292 694.637 668.229C696.61 667.167 696.61 665.345 694.637 664.282C692.815 663.22 689.627 663.068 687.806 664.131C685.984 665.193 685.984 666.863 687.806 668.077Z" fill="#A6BEF5"/>
<path d="M650.918 667.318C652.74 668.381 655.927 668.533 657.749 667.47C659.722 666.408 659.722 664.586 657.749 663.523C655.776 662.461 652.74 662.309 650.918 663.372C649.096 664.282 649.096 666.104 650.918 667.318Z" fill="#A6BEF5"/>
<path d="M669.134 667.47C670.956 668.533 674.144 668.685 675.965 667.622C677.939 666.559 677.939 664.738 675.965 663.675C674.144 662.613 670.956 662.461 669.134 663.523C667.313 664.586 667.313 666.408 669.134 667.47Z" fill="#A6BEF5"/>
<path d="M669.286 678.248C671.108 679.311 674.296 679.462 676.117 678.4C678.091 677.337 678.091 675.516 676.117 674.453C674.296 673.39 671.108 673.239 669.286 674.301C667.465 675.364 667.465 677.185 669.286 678.248Z" fill="#A6BEF5"/>
<path d="M600.065 695.401C601.887 696.464 605.074 696.616 606.896 695.553C608.869 694.491 608.869 692.669 606.896 691.606C605.074 690.544 601.887 690.392 600.065 691.455C598.243 692.517 598.092 694.339 600.065 695.401Z" fill="#A6BEF5"/>
<path d="M618.433 706.483C620.255 707.545 623.442 707.697 625.264 706.635C627.237 705.572 627.237 703.75 625.264 702.688C623.442 701.625 620.255 701.473 618.433 702.536C616.611 703.599 616.611 705.42 618.433 706.483Z" fill="#A6BEF5"/>
<path d="M581.545 705.724C583.367 706.786 586.555 706.938 588.376 705.876C590.35 704.813 590.35 702.991 588.376 701.929C586.555 700.866 583.367 700.714 581.545 701.777C579.724 702.84 579.724 704.661 581.545 705.724Z" fill="#A6BEF5"/>
<path d="M599.762 706.027C601.583 707.09 604.771 707.242 606.593 706.179C608.566 705.117 608.566 703.295 606.593 702.232C604.771 701.17 601.583 701.018 599.762 702.081C597.94 703.143 597.94 704.813 599.762 706.027Z" fill="#A6BEF5"/>
<path d="M599.914 716.805C601.735 717.868 604.923 718.02 606.745 716.957C608.718 715.894 608.718 714.073 606.745 713.01C604.771 711.948 601.735 711.796 599.914 712.858C598.092 713.769 598.092 715.591 599.914 716.805Z" fill="#A6BEF5"/>
<path d="M635.738 675.667C637.56 676.73 640.748 676.882 642.569 675.819C644.543 674.757 644.543 672.935 642.569 671.872C640.596 670.81 637.56 670.658 635.738 671.721C633.917 672.783 633.765 674.605 635.738 675.667Z" fill="white"/>
<path d="M654.106 686.749C655.928 687.811 659.115 687.963 660.937 686.901C662.91 685.838 662.91 684.016 660.937 682.954C658.964 681.891 655.928 681.739 654.106 682.802C652.284 683.865 652.133 685.534 654.106 686.749Z" fill="white"/>
<path d="M617.219 685.99C619.04 687.052 622.228 687.204 624.05 686.142C626.023 685.079 626.023 683.257 624.05 682.195C622.228 681.132 619.04 680.98 617.219 682.043C615.397 683.106 615.397 684.775 617.219 685.99Z" fill="white"/>
<path d="M635.435 686.293C637.256 687.356 640.444 687.508 642.266 686.445C644.239 685.383 644.239 683.561 642.266 682.498C640.444 681.436 637.256 681.284 635.435 682.347C633.613 683.257 633.613 685.079 635.435 686.293Z" fill="white"/>
<path d="M635.586 696.919C637.408 697.982 640.596 698.134 642.417 697.071C644.391 696.009 644.391 694.187 642.417 693.124C640.596 692.062 637.408 691.91 635.586 692.973C633.765 694.035 633.765 695.857 635.586 696.919Z" fill="white"/>
<defs>
<linearGradient id="paint0_linear" x1="360.93" y1="336.154" x2="245.923" y2="336.154" gradientUnits="userSpaceOnUse">
<stop offset="0.0368419" stop-color="#98D8FF"/>
<stop offset="0.2491" stop-color="#7ECEFF"/>
<stop offset="0.566" stop-color="#60C3FF"/>
<stop offset="0.9465" stop-color="#32ADF8"/>
<stop offset="1" stop-color="#109CF1"/>
</linearGradient>
<linearGradient id="paint1_linear" x1="462.277" y1="374.408" x2="421.881" y2="453.545" gradientUnits="userSpaceOnUse">
<stop offset="0.0438595" stop-color="#E29439"/>
<stop offset="0.8263" stop-color="#E17500"/>
</linearGradient>
</defs>
</svg>
