<svg width="27" height="26" viewBox="0 0 27 26" fill="none" xmlns="http://www.w3.org/2000/svg">
<path d="M10 6.57922C10 6.76664 10.3209 6.91835 10.7174 6.91835L19.5652 6.91835L19.5652 21.1618L10.7174 21.1618C10.3209 21.1618 10 21.3135 10 21.501C10 21.6884 10.3209 21.8401 10.7174 21.8401L20.2826 21.8401C20.6791 21.8401 21 21.6884 21 21.501L21 6.57922C21 6.39179 20.6791 6.24009 20.2826 6.24009L10.7174 6.24009C10.3214 6.24009 10 6.39179 10 6.57922Z" fill="white" stroke="white" stroke-width="0.8"/>
<path d="M16.7782 14.2227C16.8482 14.1553 16.883 14.067 16.883 13.9787C16.883 13.8905 16.8482 13.8022 16.7782 13.7348L13.6743 10.7458C13.5346 10.6111 13.3075 10.6111 13.1679 10.7458C13.0279 10.8806 13.0279 11.0987 13.1679 11.2335L15.6603 13.6336L2.19903 13.6336C2.00109 13.6336 1.84088 13.7879 1.84088 13.9785C1.84088 14.1691 2.00109 14.3234 2.19903 14.3234L15.6603 14.3234L13.1679 16.7235C13.0279 16.8583 13.0279 17.0765 13.1679 17.2112C13.3075 17.3459 13.5346 17.3459 13.6743 17.2112L16.7782 14.2227Z" fill="white" stroke="white"/>
</svg>
