<svg width="25" height="25" viewBox="0 0 25 25" fill="none" xmlns="http://www.w3.org/2000/svg">
<path d="M8.70551 15.5591H13.5223C13.7277 15.5591 13.8945 15.3926 13.8945 15.1869C13.8945 14.9812 13.7277 14.8147 13.5223 14.8147H8.70551C8.50006 14.8147 8.33331 14.9812 8.33331 15.1869C8.33331 15.3926 8.50006 15.5591 8.70551 15.5591Z" fill="white" stroke="white" stroke-width="0.5"/>
<path d="M15.1865 17.5925H6.85371C6.64825 17.5925 6.48151 17.759 6.48151 17.9647C6.48151 18.1705 6.64825 18.337 6.85371 18.337H15.1865C15.392 18.337 15.5587 18.1705 15.5587 17.9647C15.5587 17.759 15.392 17.5925 15.1865 17.5925Z" fill="white" stroke="white" stroke-width="0.5"/>
<path d="M13.5223 19.4443H8.70551C8.50006 19.4443 8.33331 19.6108 8.33331 19.8165C8.33331 20.0223 8.50006 20.1888 8.70551 20.1888H13.5223C13.7277 20.1888 13.8945 20.0223 13.8945 19.8165C13.8945 19.6108 13.7277 19.4443 13.5223 19.4443Z" fill="white" stroke="white" stroke-width="0.5"/>
<path d="M8.8078 9.66511H11.1011V11.6306C11.1011 11.8552 11.3137 12.037 11.5756 12.037C11.8376 12.037 12.0501 11.8552 12.0501 11.6306V9.66511H14.3403C14.6022 9.66511 14.8148 9.4833 14.8148 9.25868C14.8148 9.03406 14.6022 8.85226 14.3403 8.85226H12.0501V6.88787C12.0501 6.66325 11.8376 6.48145 11.5756 6.48145C11.3137 6.48145 11.1011 6.66325 11.1011 6.88787V8.85226H8.8078C8.54588 8.85226 8.33331 9.03406 8.33331 9.25868C8.33331 9.4833 8.54588 9.66511 8.8078 9.66511Z" fill="white" stroke="white" stroke-width="0.5"/>
<path d="M21.7629 2.10498H6.47602C6.23265 2.10498 6.03514 2.28472 6.03514 2.50677V4.43163H3.90395C3.66059 4.43163 3.46307 4.61136 3.46307 4.83342V22.481C3.46307 22.703 3.66059 22.8828 3.90395 22.8828H19.1932C19.4366 22.8828 19.6341 22.703 19.6341 22.481V20.5561H21.7629C22.0063 20.5561 22.2038 20.3764 22.2038 20.1543V2.50651C22.2038 2.28498 22.0063 2.10498 21.7629 2.10498ZM4.34483 22.0794V5.23548H18.7523V20.1366C18.7521 20.1428 18.7503 20.1487 18.7503 20.1549C18.7503 20.161 18.7521 20.1669 18.7523 20.1731V22.0797H4.34483V22.0794ZM21.3221 19.7528H19.6341V4.83342C19.6341 4.61136 19.4366 4.43163 19.1932 4.43163H6.91689V2.90857H21.3221V19.7528Z" fill="white" stroke="white" stroke-width="0.5"/>
</svg>
