<svg width="45" height="45" viewBox="0 0 45 45" fill="none" xmlns="http://www.w3.org/2000/svg">
<path d="M41.4339 19.3382C41.1541 19.0947 40.729 19.1234 40.4851 19.4036L39.1959 20.8843C38.4286 12.189 31.1097 5.34653 22.2185 5.34653C12.8162 5.34653 5.16675 12.9944 5.16675 22.3946C5.16675 31.7958 12.8162 39.4445 22.2185 39.4445C28.2403 39.4445 33.6983 36.3638 36.818 31.2043C37.0103 30.8868 36.9081 30.4729 36.5902 30.2806C36.2722 30.0891 35.8583 30.1904 35.6664 30.5084C32.7926 35.2616 27.7654 38.0992 22.2185 38.0992C13.5579 38.0992 6.51199 31.0541 6.51199 22.3946C6.51199 13.736 13.5579 6.69179 22.2185 6.69179C30.4205 6.69179 37.1695 13.0141 37.8587 21.0404L36.2202 19.6175C35.9404 19.3741 35.5153 19.4041 35.2714 19.6844C35.0279 19.9646 35.0579 20.3897 35.3382 20.6332L38.1681 23.0901C38.2955 23.2009 38.4524 23.2547 38.6089 23.2547C38.7963 23.2547 38.9833 23.1767 39.1165 23.0238L41.4994 20.2866C41.7438 20.0068 41.7142 19.5821 41.4339 19.3382Z" fill="black"/>
<line x1="19.5" y1="13" x2="19.5" y2="26" stroke="black"/>
<line x1="20" y1="25.5" x2="31" y2="25.5" stroke="black"/>
</svg>
