<svg width="43" height="43" viewBox="0 0 43 43" fill="none" xmlns="http://www.w3.org/2000/svg">
<path d="M21.4464 13.0823C17.0709 13.0823 13.5112 16.6419 13.5112 21.0174C13.5112 25.3929 17.0709 28.9526 21.4464 28.9526C25.8219 28.9526 29.3816 25.3929 29.3816 21.0174C29.3816 16.6419 25.8219 13.0823 21.4464 13.0823ZM21.4464 27.6658C17.7803 27.6658 14.798 24.6835 14.798 21.0174C14.798 17.3514 17.7803 14.3691 21.4464 14.3691C25.1124 14.3691 28.0948 17.3514 28.0948 21.0174C28.0948 24.6835 25.1124 27.6658 21.4464 27.6658Z" fill="#B7C1D0"/>
<path d="M40.8447 17.8009L35.7113 17.0241C35.4291 16.0728 35.0477 15.1488 34.5742 14.2683L37.6522 10.0935C37.8409 9.83743 37.8143 9.48185 37.5896 9.25666L33.6366 5.30409C33.4114 5.07934 33.0558 5.05231 32.7997 5.24104L28.6383 8.30873C27.7538 7.82833 26.8239 7.44144 25.8648 7.15449L25.0923 2.04853C25.0447 1.7337 24.7745 1.50122 24.4562 1.50122H18.8664C18.5482 1.50122 18.278 1.7337 18.2303 2.04853L17.4578 7.15449C16.4988 7.44144 15.5688 7.82876 14.6844 8.30873L10.5229 5.24104C10.2669 5.05231 9.91129 5.07891 9.68611 5.30409L5.73354 9.25666C5.50878 9.48142 5.48176 9.83743 5.67048 10.0935L8.74847 14.2683C8.27493 15.1488 7.89362 16.0728 7.61138 17.0241L2.47798 17.8009C2.16314 17.8485 1.93066 18.1187 1.93066 18.437V24.0268C1.93066 24.345 2.16314 24.6153 2.47755 24.6629L7.63626 25.4435C7.9215 26.3846 8.30196 27.2961 8.77163 28.1634L5.67006 32.3703C5.48133 32.6264 5.50835 32.9819 5.73311 33.2071L9.68568 37.1597C9.91043 37.3849 10.2664 37.4115 10.5225 37.2227L14.7432 34.1113C15.6062 34.5745 16.5121 34.9494 17.4454 35.2295L18.2299 40.4153C18.2775 40.7301 18.5478 40.9626 18.866 40.9626H24.4558C24.7741 40.9626 25.0443 40.7301 25.0919 40.4153L25.8764 35.2295C26.8098 34.9494 27.7157 34.5745 28.5787 34.1113L32.7993 37.2227C33.0554 37.4115 33.411 37.3845 33.6361 37.1597L37.5891 33.2071C37.8139 32.9824 37.8409 32.6264 37.6518 32.3703L34.5502 28.1634C35.0203 27.2961 35.4007 26.3846 35.6856 25.4435L40.8443 24.6629C41.1587 24.6153 41.3912 24.345 41.3912 24.0268V18.437C41.3916 18.1192 41.1591 17.8485 40.8447 17.8009ZM40.1048 23.4735L35.0851 24.2331C34.8328 24.2713 34.627 24.4549 34.56 24.7006C34.2581 25.8137 33.8103 26.886 33.2291 27.8884C33.1004 28.1102 33.1154 28.3868 33.2677 28.5932L36.2873 32.689L33.1171 35.8592L29.0089 32.8305C28.803 32.6791 28.5276 32.6632 28.3067 32.7906C27.3069 33.365 26.2401 33.8068 25.1348 34.1032C24.8882 34.1696 24.7037 34.3755 24.6655 34.6286L23.9021 39.6766H19.4189L18.6554 34.6286C18.6172 34.376 18.4328 34.1696 18.1862 34.1032C17.0808 33.8068 16.0141 33.365 15.0142 32.7906C14.7933 32.6637 14.5175 32.6795 14.3121 32.8305L10.2038 35.8592L7.03362 32.689L10.0533 28.5932C10.2051 28.3868 10.2205 28.1102 10.0919 27.8884C9.51067 26.8864 9.06287 25.8137 8.76091 24.7006C8.694 24.4544 8.48811 24.2713 8.2359 24.2331L3.21616 23.4735V18.9903L8.21317 18.2345C8.46666 18.1964 8.67341 18.0111 8.73903 17.7632C9.03628 16.6411 9.48322 15.5568 10.0683 14.5402C10.1957 14.3189 10.1798 14.0431 10.0284 13.8376L7.03362 9.77524L10.2038 6.60503L14.2542 9.5908C14.4605 9.74264 14.7372 9.75808 14.9593 9.62897C15.978 9.03705 17.0679 8.58367 18.1977 8.28128C18.4448 8.21523 18.6292 8.00891 18.6674 7.75584L19.4189 2.78757H23.9021L24.6535 7.75584C24.6917 8.00891 24.8761 8.21523 25.1232 8.28128C26.253 8.58367 27.3425 9.03705 28.3616 9.62897C28.5834 9.75851 28.86 9.74264 29.0668 9.5908L33.1171 6.60503L36.2873 9.77524L33.2926 13.8376C33.1412 14.0431 33.1253 14.3189 33.2527 14.5402C33.8373 15.5568 34.2847 16.6411 34.5819 17.7632C34.6476 18.0111 34.8543 18.1959 35.1078 18.2345L40.1048 18.9903V23.4735Z" fill="#B7C1D0"/>
</svg>
